<?xml version="1.0" standalone="no"?>
<!DOCTYPE svg PUBLIC "-//W3C//DTD SVG 20010904//EN"
 "http://www.w3.org/TR/2001/REC-SVG-20010904/DTD/svg10.dtd">
<svg version="1.0" xmlns="http://www.w3.org/2000/svg"
 width="700.000000pt" height="700.000000pt" viewBox="0 0 700.000000 700.000000"
 preserveAspectRatio="xMidYMid meet">
<metadata>
Created by potrace 1.11, written by Peter Selinger 2001-2013
</metadata>
<g transform="translate(0.000000,700.000000) scale(0.100000,-0.100000)"
fill="#000000" stroke="none">
<path d="M3270 6919 c-167 -8 -333 -28 -500 -60 -735 -144 -1389 -525 -1903
-1109 -178 -203 -410 -522 -391 -539 20 -17 416 -299 583 -415 813 -562 1391
-841 2095 -1011 l141 -34 104 112 c587 633 1226 1079 1951 1362 227 88 554
188 763 231 48 10 87 21 87 26 0 14 -196 252 -291 354 -217 232 -423 406 -670
567 -588 382 -1231 550 -1969 516z"/>
<path d="M6383 4975 c-18 -7 -72 -21 -120 -30 -387 -71 -802 -219 -1158 -413
-255 -138 -609 -366 -805 -518 -383 -297 -589 -619 -651 -1019 -15 -95 -15
-436 1 -639 36 -480 134 -1014 276 -1506 89 -309 237 -730 256 -730 16 0 114
29 228 67 954 319 1703 940 2107 1748 164 328 264 656 320 1055 22 157 25 689
5 875 -67 614 -204 1019 -373 1106 -45 22 -45 22 -86 4z"/>
<path d="M142 4443 c-70 -282 -82 -341 -117 -543 -23 -131 -25 -171 -25 -425
0 -229 4 -303 20 -408 131 -851 541 -1637 1124 -2157 562 -500 1208 -767 1991
-821 144 -10 451 -6 463 6 2 1 -24 86 -58 186 -207 619 -337 1213 -397 1819
-18 188 -25 830 -11 1026 l8 101 -173 42 c-352 88 -693 216 -1054 396 -340
169 -609 328 -1153 680 -325 210 -539 345 -549 345 -5 0 -36 -111 -69 -247z"/>
</g>
</svg>
