<?xml version="1.0" encoding="UTF-8"?>
<svg width="44px" height="44px" viewBox="0 0 44 44" version="1.1" xmlns="http://www.w3.org/2000/svg" xmlns:xlink="http://www.w3.org/1999/xlink">
    <!-- Generator: Sketch 57.1 (83088) - https://sketch.com -->
    <title>logo</title>
    <desc>Created with Sketch.</desc>
    <g id="Page-1" stroke="none" stroke-width="1" fill="none" fill-rule="evenodd">
        <g id="logo" fill-rule="nonzero">
            <path d="M39.0395538,9.58600406 C30.9760649,11.241785 25.294929,15.2780933 20.7365112,20.4371197 C13.264503,18.8926978 8.16572008,14.9750507 2.91724138,11.2070994 C6.31460446,5.84908722 11.8624746,1.11724138 20.0866126,0.511156187 C28.9332657,-0.135091278 35.2168357,4.36490872 39.0395538,9.58600406 Z" id="Shape" fill="#009DDC"></path>
            <path d="M26.2423935,43.2803245 C24.3876268,38.6032454 22.8541582,32.5332657 22.84131,26.5947262 C22.830426,21.2860041 26.6951318,18.8087221 30.2933063,16.5541582 C33.2507099,14.6975659 36.2318458,13.4507099 39.8501014,12.8263692 C40.0509128,12.7953347 40.293712,12.5872211 40.5,12.6657201 C42.4953347,13.4269777 43.3679513,20.1176471 43.088641,24.0060852 C42.3456389,34.4427992 34.7002028,41.0129817 26.2423935,43.2803245 Z" id="Shape" fill="#92278F"></path>
            <path d="M0,24.0042596 L0,20.2764706 C0.305491552,18.3088293 0.737832792,16.3629888 1.29432049,14.4511156 C6.63772819,17.6933063 12.174645,22.1476673 19.7634888,23.6866126 C19.106288,31.2553753 20.7401623,37.9387424 22.6843813,43.4446247 C9.99310345,44.3208925 1.38377282,35.1438134 0,24.0042596 Z" id="Shape" fill="#39B54A"></path>
        </g>
    </g>
</svg>